#N canvas 94 246 885 323 10;
#X declare -lib mrpeach;
#X obj 16 14 import mrpeach;
#X obj 18 80 unpackOSC;
#X obj 18 126 routeOSC /player_one_info /player_two_info;
#X floatatom 442 230 5 0 0 0 - - -;
#X floatatom 481 230 5 0 0 0 - - -;
#X floatatom 520 230 5 0 0 0 - - -;
#X msg 119 14 status;
#X obj 18 52 udpreceive 127.0.0.1 7001;
#X text 184 51 changed port here \, gamestate.h \, and in utils/examplepacketlistener.h
to prevent interference with chuck while its still included;
#X floatatom 560 230 5 0 0 0 - - -;
#X floatatom 599 230 5 0 0 0 - - -;
#X floatatom 638 230 5 0 0 0 - - -;
#X floatatom 678 230 5 0 0 0 - - -;
#X floatatom 717 230 5 0 0 0 - - -;
#X floatatom 18 230 5 0 0 0 - - -;
#X floatatom 63 230 5 0 0 0 - - -;
#X floatatom 102 230 5 0 0 0 - - -;
#X floatatom 142 230 5 0 0 0 - - -;
#X floatatom 181 230 5 0 0 0 - - -;
#X floatatom 220 230 5 0 0 0 - - -;
#X floatatom 260 230 5 0 0 0 - - -;
#X floatatom 299 230 5 0 0 0 - - -;
#X obj 443 162 route player_stock player_percent player_on_ground player_facing
player_charging_smash player_x player_y player_jumps player_invulnerable
;
#X obj 18 162 route player_stock player_percent player_on_ground player_facing
player_charging_smash player_x player_y player_jumps player_invulnerable
;
#X floatatom 754 230 5 0 0 0 - - -;
#X floatatom 339 230 5 0 0 0 - - -;
#X obj 18 259 outlet;
#X obj 63 259 outlet;
#X obj 108 259 outlet;
#X obj 153 259 outlet;
#X obj 198 259 outlet;
#X obj 243 259 outlet;
#X obj 288 259 outlet;
#X obj 333 259 outlet;
#X obj 383 259 outlet;
#X obj 438 259 outlet;
#X obj 483 259 outlet;
#X obj 528 259 outlet;
#X obj 573 259 outlet;
#X obj 618 259 outlet;
#X obj 663 259 outlet;
#X obj 708 259 outlet;
#X obj 753 259 outlet;
#X obj 803 259 outlet;
#X connect 1 0 2 0;
#X connect 2 0 23 0;
#X connect 2 1 22 0;
#X connect 3 0 35 0;
#X connect 4 0 36 0;
#X connect 5 0 37 0;
#X connect 6 0 7 0;
#X connect 7 0 1 0;
#X connect 9 0 38 0;
#X connect 10 0 39 0;
#X connect 11 0 40 0;
#X connect 12 0 41 0;
#X connect 13 0 42 0;
#X connect 14 0 26 0;
#X connect 15 0 27 0;
#X connect 16 0 28 0;
#X connect 17 0 29 0;
#X connect 18 0 30 0;
#X connect 19 0 31 0;
#X connect 20 0 32 0;
#X connect 21 0 33 0;
#X connect 22 0 3 0;
#X connect 22 1 4 0;
#X connect 22 2 5 0;
#X connect 22 3 9 0;
#X connect 22 4 10 0;
#X connect 22 5 11 0;
#X connect 22 6 12 0;
#X connect 22 7 13 0;
#X connect 22 8 24 0;
#X connect 23 0 14 0;
#X connect 23 1 15 0;
#X connect 23 2 16 0;
#X connect 23 3 17 0;
#X connect 23 4 18 0;
#X connect 23 5 19 0;
#X connect 23 6 20 0;
#X connect 23 7 21 0;
#X connect 23 8 25 0;
#X connect 24 0 43 0;
#X connect 25 0 34 0;
#X coords 0 -1 1 1 700 10 1 100 100;
