#N canvas 30 40 1162 287 10;
#X obj 22 64 tgl 15 0 empty empty empty 17 7 0 10 -262144 -1 -1 0 1
;
#X obj 22 85 metro 120;
#X obj 22 108 counter 7;
#X obj 22 131 sel 0 1 2 3 4 5 6 7;
#X floatatom 73 63 5 0 0 0 - - -;
#X obj 22 159 bng 15 250 50 0 empty empty empty 17 7 0 10 -262144 -1
-1;
#X obj 125 159 bng 15 250 50 0 empty empty empty 17 7 0 10 -262144
-1 -1;
#X obj 56 159 bng 15 250 50 0 empty empty empty 17 7 0 10 -262144 -1
-1;
#X obj 90 159 bng 15 250 50 0 empty empty empty 17 7 0 10 -262144 -1
-1;
#N canvas 514 234 533 318 rrandom 0;
#X obj -199 99 random 2;
#X obj -63 93 random 4;
#X obj 57 90 random 8;
#X obj 201 91 random 16;
#X obj -200 127 sel 0 1;
#X obj -57 126 sel 0 1;
#X obj 56 132 sel 0 1;
#X obj 210 125 sel 0 1;
#X obj -181 28 inlet;
#X obj -59 36 inlet;
#X obj 65 40 inlet;
#X obj 184 51 inlet;
#X obj -162 230 outlet;
#X obj 208 201 outlet;
#X obj 65 210 outlet;
#X obj -60 215 outlet;
#X connect 0 0 4 0;
#X connect 1 0 5 0;
#X connect 2 0 6 0;
#X connect 3 0 7 0;
#X connect 4 0 12 0;
#X connect 5 0 15 0;
#X connect 6 0 14 0;
#X connect 7 0 13 0;
#X connect 8 0 0 0;
#X connect 9 0 1 0;
#X connect 10 0 2 0;
#X connect 11 0 3 0;
#X restore 22 195 pd rrandom;
#N canvas 514 234 533 318 rrandom 0;
#X obj -199 99 random 2;
#X obj -63 93 random 4;
#X obj 57 90 random 8;
#X obj 201 91 random 16;
#X obj -200 127 sel 0 1;
#X obj -57 126 sel 0 1;
#X obj 56 132 sel 0 1;
#X obj 210 125 sel 0 1;
#X obj -181 28 inlet;
#X obj -59 36 inlet;
#X obj 65 40 inlet;
#X obj 184 51 inlet;
#X obj -162 230 outlet;
#X obj 208 201 outlet;
#X obj 65 210 outlet;
#X obj -60 215 outlet;
#X connect 0 0 4 0;
#X connect 1 0 5 0;
#X connect 2 0 6 0;
#X connect 3 0 7 0;
#X connect 4 0 12 0;
#X connect 5 0 15 0;
#X connect 6 0 14 0;
#X connect 7 0 13 0;
#X connect 8 0 0 0;
#X connect 9 0 1 0;
#X connect 10 0 2 0;
#X connect 11 0 3 0;
#X restore 222 195 pd rrandom;
#N canvas 514 234 533 318 rrandom 0;
#X obj -199 99 random 2;
#X obj -63 93 random 4;
#X obj 57 90 random 8;
#X obj 201 91 random 16;
#X obj -200 127 sel 0 1;
#X obj -57 126 sel 0 1;
#X obj 56 132 sel 0 1;
#X obj 210 125 sel 0 1;
#X obj -181 28 inlet;
#X obj -59 36 inlet;
#X obj 65 40 inlet;
#X obj 184 51 inlet;
#X obj -162 230 outlet;
#X obj 208 201 outlet;
#X obj 65 210 outlet;
#X obj -60 215 outlet;
#X connect 0 0 4 0;
#X connect 1 0 5 0;
#X connect 2 0 6 0;
#X connect 3 0 7 0;
#X connect 4 0 12 0;
#X connect 5 0 15 0;
#X connect 6 0 14 0;
#X connect 7 0 13 0;
#X connect 8 0 0 0;
#X connect 9 0 1 0;
#X connect 10 0 2 0;
#X connect 11 0 3 0;
#X restore 422 195 pd rrandom;
#N canvas 514 234 533 318 rrandom 0;
#X obj -199 99 random 2;
#X obj -63 93 random 4;
#X obj 57 90 random 8;
#X obj 201 91 random 16;
#X obj -200 127 sel 0 1;
#X obj -57 126 sel 0 1;
#X obj 56 132 sel 0 1;
#X obj 210 125 sel 0 1;
#X obj -181 28 inlet;
#X obj -59 36 inlet;
#X obj 65 40 inlet;
#X obj 184 51 inlet;
#X obj -162 230 outlet;
#X obj 208 201 outlet;
#X obj 65 210 outlet;
#X obj -60 215 outlet;
#X connect 0 0 4 0;
#X connect 1 0 5 0;
#X connect 2 0 6 0;
#X connect 3 0 7 0;
#X connect 4 0 12 0;
#X connect 5 0 15 0;
#X connect 6 0 14 0;
#X connect 7 0 13 0;
#X connect 8 0 0 0;
#X connect 9 0 1 0;
#X connect 10 0 2 0;
#X connect 11 0 3 0;
#X restore 622 195 pd rrandom;
#X msg 145 77 214;
#X obj 22 30 inlet;
#X obj 72 33 inlet;
#X obj 22 227 outlet;
#X obj 72 227 outlet;
#X obj 122 227 outlet;
#X obj 172 227 outlet;
#X obj 222 227 outlet;
#X obj 272 227 outlet;
#X obj 322 227 outlet;
#X obj 372 227 outlet;
#X obj 422 227 outlet;
#X obj 472 227 outlet;
#X obj 522 227 outlet;
#X obj 572 227 outlet;
#X obj 622 227 outlet;
#X obj 672 227 outlet;
#X obj 722 227 outlet;
#X obj 772 227 outlet;
#X connect 0 0 1 0;
#X connect 1 0 2 0;
#X connect 2 0 3 0;
#X connect 3 0 5 0;
#X connect 3 1 6 0;
#X connect 3 2 8 0;
#X connect 3 3 6 0;
#X connect 3 4 7 0;
#X connect 3 5 6 0;
#X connect 3 6 8 0;
#X connect 3 7 6 0;
#X connect 4 0 1 1;
#X connect 5 0 9 0;
#X connect 5 0 9 1;
#X connect 5 0 9 2;
#X connect 5 0 9 3;
#X connect 6 0 12 0;
#X connect 6 0 12 1;
#X connect 6 0 12 2;
#X connect 6 0 12 3;
#X connect 7 0 10 0;
#X connect 7 0 10 1;
#X connect 7 0 10 2;
#X connect 7 0 10 3;
#X connect 8 0 11 0;
#X connect 8 0 11 1;
#X connect 8 0 11 2;
#X connect 8 0 11 3;
#X connect 9 0 16 0;
#X connect 9 1 17 0;
#X connect 9 2 18 0;
#X connect 9 3 19 0;
#X connect 10 0 20 0;
#X connect 10 1 21 0;
#X connect 10 2 22 0;
#X connect 10 3 23 0;
#X connect 11 0 24 0;
#X connect 11 1 25 0;
#X connect 11 2 26 0;
#X connect 11 3 27 0;
#X connect 12 0 28 0;
#X connect 12 1 29 0;
#X connect 12 2 30 0;
#X connect 12 3 31 0;
#X connect 13 0 4 0;
#X connect 14 0 0 0;
#X connect 15 0 4 0;
#X coords 0 -1 1 1 500 10 1 100 100;
